inDegrees=no
num_controls=7
num_derivatives=13
num_iterations=151
num_multipliers=7
num_parameters=0
num_slacks=7
num_states=26
objective=0.495905
objective_accelerations=0.007716
objective_balance=0.000379
objective_effort=0.005724
objective_height=0.472227
objective_ligament=0.009860
solver_duration=2379.140547
status=Solve_Succeeded
success=true
DataType=double
version=3
OpenSimVersion=4.5
endheader
time	/jointset/ground_pelvis/pelvis_tilt/value	/jointset/ground_pelvis/pelvis_tx/value	/jointset/ground_pelvis/pelvis_ty/value	/jointset/hip_l/hip_flexion_l/value	/jointset/hip_l/hip_adduction_l/value	/jointset/hip_l/hip_rotation_l/value	/jointset/back/lumbar_extension/value	/jointset/patellofemoral_l/patellar_flexion_l/value	/jointset/knee_l/knee_flexion_l/value	/jointset/knee_l/knee_adduction_l/value	/jointset/knee_l/knee_rotation_l/value	/jointset/ankle_l/ankle_angle_l/value	/jointset/subtalar_l/subtalar_angle_l/value	/jointset/ground_pelvis/pelvis_tilt/speed	/jointset/ground_pelvis/pelvis_tx/speed	/jointset/ground_pelvis/pelvis_ty/speed	/jointset/hip_l/hip_flexion_l/speed	/jointset/hip_l/hip_adduction_l/speed	/jointset/hip_l/hip_rotation_l/speed	/jointset/back/lumbar_extension/speed	/jointset/patellofemoral_l/patellar_flexion_l/speed	/jointset/knee_l/knee_flexion_l/speed	/jointset/knee_l/knee_adduction_l/speed	/jointset/knee_l/knee_rotation_l/speed	/jointset/ankle_l/ankle_angle_l/speed	/jointset/subtalar_l/subtalar_angle_l/speed	/forceset/tau_hip_flexion_l	/forceset/tau_hip_adduction_l	/forceset/tau_hip_rotation_l	/forceset/tau_knee_flexion_l	/forceset/tau_ankle_angle_l	/forceset/tau_subtalar_angle_l	/forceset/tau_lumbar_extension	lambda_cid13_p0	lambda_cid13_p1	lambda_cid13_p2	lambda_cid13_p3	lambda_cid13_p4	lambda_cid13_p5	lambda_cid14_p0	/jointset/ground_pelvis/pelvis_tilt/accel	/jointset/ground_pelvis/pelvis_tx/accel	/jointset/ground_pelvis/pelvis_ty/accel	/jointset/hip_l/hip_flexion_l/accel	/jointset/hip_l/hip_adduction_l/accel	/jointset/hip_l/hip_rotation_l/accel	/jointset/back/lumbar_extension/accel	/jointset/patellofemoral_l/patellar_flexion_l/accel	/jointset/knee_l/knee_flexion_l/accel	/jointset/knee_l/knee_adduction_l/accel	/jointset/knee_l/knee_rotation_l/accel	/jointset/ankle_l/ankle_angle_l/accel	/jointset/subtalar_l/subtalar_angle_l/accel	gamma_cid13_p0	gamma_cid13_p1	gamma_cid13_p2	gamma_cid13_p3	gamma_cid13_p4	gamma_cid13_p5	gamma_cid14_p0
0.5	0.09984262697141229	0.1718200621100076	0.9004040439357601	0.05296797181481281	-0.3339740141588911	-0.2462988790350085	-0.1824131659814177	0.3086152751106973	0.3086152751106556	-0.06323759771618938	-0.1745276869755308	0.2424271301612093	0.1756609319384828	0.0842507309773765	0.1890002832685405	-0.03005927677566542	-0.1970121323875684	-0.0170118656577526	0.01363411893189318	0.1364898014920523	0.2561994731888443	0.2561994731888323	0.06350420930397226	4.174238167723872e-05	0.3927523916285773	0.1449202070402109	0.06643523667791752	0.006595868732587679	-0.0007629059210478323	-0.1499772006428823	-0.0265074210993027	-0.01835528784247357	-0.004457001157860421	-36.53928677835261	11.56390340723317	1.08001439881238	5.614501885098233	-460.2319955493082	-63.74816289602681	-25.53388822160341	-0.1896728308344063	-0.1228045331870219	-0.03598505263941751	0.1462091888727896	0.02372713485136014	-0.1797558511830362	0.2301050984763897	-0.3538582545018696	-0.3538582545018703	-0.006591074976116964	0.005051481631467245	-0.342447210998379	-0.008049086312821332	-3.994801398702257e-10	-2.762769228564063e-08	2.239154527612161e-09	-4.851350896859699e-10	6.399011820071426e-09	-4.774303719071968e-09	-3.737498443484467e-09
0.51	0.1006753499622962	0.1737037232632398	0.9001017021980007	0.05100559379201447	-0.3341429202637197	-0.2461718094291212	-0.1810368179710147	0.3111592793024153	0.3111592793023417	-0.06260288974480623	-0.1745272905131733	0.2463370710702072	0.1771095599062583	0.08226994124764975	0.1877118406503269	-0.03040205244614931	-0.19543484136119	-0.01676372412241241	0.01177286528448752	0.1387675544657566	0.2525559921313366	0.2525559921313439	0.06343377678710511	3.657617916180541e-05	0.3891833953964958	0.1447885294051798	0.0670086640384454	0.007664447624860978	-0.0007341665894439672	-0.1496659935502441	-0.02937666244565462	-0.018295016929428	-0.004955237251103735	-37.4806441793422	11.6730251308069	1.096344877003177	5.975403794309359	-460.4729418023495	-63.39783899045556	-25.50706444056441	-0.2058708460067036	-0.1348802185397833	-0.03236977631355693	0.1677838595792667	0.02620668906819631	-0.1903518244836993	0.2247734783064211	-0.37639823248513	-0.3763982324822654	-0.007815341183963294	-0.003446423086850086	-0.371986319394491	-0.01825160816437291	-4.9948600841915e-10	-2.760684648552718e-08	2.731683389505886e-09	-3.359343515451667e-10	6.588924135796742e-09	-5.384895368388308e-09	-3.776433130731438e-09
0.52	0.1014875472954905	0.1755738967718096	0.899796143513124	0.04905984763949336	-0.3343091751479588	-0.2460635607003004	-0.1796380598145761	0.3136654876433222	0.313665487643241	-0.06196899529881036	-0.1745269748632351	0.2502097499188684	0.1785563661964701	0.08014559943932911	0.1863027543360555	-0.03070266619908598	-0.1936857583324568	-0.01648162153935602	0.009869943518505604	0.1409718306990215	0.2486403030294314	0.2486403030294578	0.06334150422455675	2.557990089503252e-05	0.385299979561157	0.1445558715275032	0.06758209139898874	0.008733026517128427	-0.0007054272577025719	-0.1493547864576076	-0.03224590379200863	-0.01823474601639287	-0.005453473344330943	-38.42460841232583	11.78207649989919	1.113288329060277	6.344792996418064	-460.7486806684018	-63.05471114531645	-25.48008470376918	-0.2183832465532457	-0.1469332723985209	-0.02755266912997934	0.180567589343709	0.030519344394587	-0.1880894748983047	0.2154097503884752	-0.4082998633813832	-0.4082998633813813	-0.01095908411238414	0.003885466481184958	-0.4053311316497509	-0.02824513484191261	-6.033313600234564e-10	-2.754822992761605e-08	3.216663580060946e-09	-1.718365200919175e-10	6.784272437539543e-09	-6.002945808176808e-09	-3.807540242624302e-09
0.53	0.1022777805564673	0.1774293867634833	0.8994877921821635	0.0471324591581679	-0.3344724386940526	-0.2459745195443015	-0.178217627877567	0.3161312036003019	0.316131203600259	-0.06133613129454934	-0.174526782880055	0.2540420472584508	0.1800003410727117	0.07787724638866092	0.1847761354563316	-0.03096013608906345	-0.1917637774843995	-0.01616491119139248	0.007933390505550024	0.143101443938425	0.2444584242715409	0.2444584242715465	0.06322831695757784	1.324683658923353e-05	0.3811087808762134	0.1442225707224773	0.06818241397943399	0.00975852489724671	-0.0006826740667829503	-0.149103446329637	-0.03497867226697605	-0.01818085002659597	-0.005972004198228052	-39.32400672033067	11.89093354482858	1.124734037799679	6.67622286226104	-461.0019528160399	-62.71756707453431	-25.45300055297074	-0.2346322019388098	-0.1583924940756022	-0.02372318598126509	0.2022375738756622	0.03317744605101797	-0.197174047627124	0.2097701959639713	-0.4298007315173596	-0.429800731520509	-0.01195012481221433	-0.003727738600480777	-0.4336216697958001	-0.03834857475998486	-6.86453923643628e-10	-2.755706132135959e-08	3.766366771618389e-09	-4.066208491050752e-11	6.934234468061188e-09	-6.767558819980103e-09	-3.838276214513407e-09
